<svg width="491" height="465" viewBox="0 0 491 465" fill="none" xmlns="http://www.w3.org/2000/svg">
<path fill-rule="evenodd" clip-rule="evenodd" d="M248.74 0.0513484C292.403 0.642042 334.996 11.5339 372.583 33.77C411.523 56.8071 445.592 88.0894 465.908 128.527C486.847 170.204 493.977 217.529 488.157 263.809C482.218 311.033 466.619 358.835 432.741 392.253C399.72 424.823 351.292 431.921 306.308 443.183C262.491 454.153 215.345 475.747 174.265 456.964C133.573 438.358 128.968 382.436 99.6029 348.668C69.5441 314.103 -0.241894 303.154 0.675651 257.348C1.6488 208.765 80.2123 200.867 103.419 158.179C124.448 119.496 99.2555 68.7443 129.046 36.3278C158.597 4.17279 205.082 -0.539272 248.74 0.0513484Z" fill="#CFE2FF"/>
</svg>
