<svg width="1113" height="670" viewBox="0 0 1113 670" fill="none" xmlns="http://www.w3.org/2000/svg">
<path d="M205.662 415H42.7459H0.0398173V396.015C-1.22555 366.904 27.9833 364.9 42.7459 367.537C42.7459 348.025 53.1852 309 94.9422 309C136.699 309 138.703 354.353 134.485 377.03C138.281 364.373 151.884 355.935 158.21 353.299C210.09 353.299 211.461 394.433 205.662 415Z" fill="url(#paint0_linear_40_854)"/>
<path d="M1110.27 181H919.939H870.047V158.791C868.568 124.737 902.692 122.393 919.939 125.478C919.939 102.652 932.135 57 980.918 57C1029.7 57 1032.04 110.055 1027.11 136.582C1031.55 121.776 1047.44 111.905 1054.83 108.821C1115.44 108.821 1117.04 156.94 1110.27 181Z" fill="#C3DBFF"/>
<path d="M896.551 551.084C858.948 571.331 804.635 601.93 847.007 648.214C915.017 722.503 1023.01 585.634 991.724 520.445C960.434 455.258 930.448 532.832 896.551 551.084Z" fill="url(#paint1_linear_40_854)"/>
<path d="M209.631 127.882C218.273 155.613 251.303 176.924 280.532 173.818C322.993 169.311 340.214 115.112 350.437 82.9458C357.072 62.0635 365.473 35.6213 352.433 22.0297C335.519 4.39569 294.713 21.0851 287.524 24.0264C250.468 39.1806 195.705 83.2059 209.631 127.882Z" fill="#A6CAFF"/>
<path d="M387.357 149.987C298.307 273.699 156.574 325.973 219.704 493.336C286.141 671.427 575.506 672.529 718.54 608.485C842.859 557.226 951.411 390.287 935.786 245.516C920.024 104.059 825.183 -9.10621 648.318 0.578542C487.24 13.2491 450.404 91.312 387.357 149.987Z" fill="url(#paint2_linear_40_854)"/>
<path d="M599.11 461.272C589.23 446.123 560.015 447.67 544.865 457.55C538.577 461.65 519.67 478.051 500.41 496.917C515.513 458.378 528.546 415.612 531.155 404.253C536.271 381.966 525.364 346.624 503.074 341.506C480.786 336.389 455.556 363.434 450.437 385.722C450.056 387.389 449.649 389.793 449.238 392.791C444.567 373.142 440.422 357.785 438.319 351.404C429.753 325.426 396.702 296.004 370.721 304.568C344.741 313.132 335.669 356.437 344.234 382.417C347.847 393.374 364.972 428.308 385.519 464.401C360.812 439.663 337.335 418.417 329.54 412.237C309.669 396.477 269.083 390.53 253.324 410.399C237.567 430.266 252.604 468.431 272.473 484.19C283.002 492.54 329.319 519.328 372.889 539.718C342.6 540.102 314.655 541.952 306.17 543.076C285.391 545.835 258.542 566.543 261.302 587.322C264.061 608.101 295.385 621.084 316.165 618.326C333.318 616.048 426.957 587.854 457.576 566.391C482.805 567.181 567.149 521.212 580.646 512.412C595.794 502.533 608.99 476.422 599.11 461.272Z" fill="#5297FF"/>
<path d="M584.317 467.122C580.827 468.26 577.416 469.626 574.064 471.104C567.39 474.132 560.938 477.596 554.668 481.319C548.355 484.986 542.245 488.965 536.176 492.984C530.146 497.065 524.198 501.262 518.313 505.532C506.613 514.173 495.154 523.115 484.036 532.47C475.367 539.737 466.85 547.195 458.619 554.969C458.527 554.742 458.436 554.515 458.344 554.289C460.974 538.856 463.472 523.424 465.947 508L470.362 480.891C471.831 471.859 473.31 462.832 474.923 453.829C476.417 444.807 478.086 435.817 479.79 426.841C481.413 417.845 483.348 408.924 485.251 399.998C487.235 391.092 489.348 382.213 491.988 373.499C494.655 364.823 497.449 356.021 502.971 348.651C499.605 351.826 497.204 355.866 494.938 359.898C493.914 361.966 492.869 364.041 491.936 366.156C491.052 368.286 490.086 370.398 489.267 372.556C485.942 381.181 483.195 390.002 480.808 398.898C475.956 416.68 472.34 434.732 469.145 452.828C466.069 470.946 463.455 489.131 461.426 507.381C459.748 522.303 458.378 537.263 457.518 552.262C450.208 534.18 442.798 516.162 435.415 498.145L423.058 467.693C418.948 457.543 414.868 447.382 410.934 437.171C406.881 427.003 403.026 416.763 399.226 406.51C395.343 396.282 391.809 385.941 388.277 375.602C384.827 365.238 381.546 354.816 378.914 344.235C376.346 333.682 373.825 322.891 375.042 311.941C373.624 317.287 373.725 322.896 373.946 328.412C374.204 331.158 374.436 333.92 374.81 336.656C375.244 339.378 375.578 342.131 376.096 344.84C378.097 355.7 380.806 366.402 383.906 376.964C390.034 398.125 397.53 418.817 405.472 439.306C413.529 459.752 422.093 479.987 431.231 499.956C439.503 518.075 448.155 536.022 457.446 553.651C457.4 554.51 457.357 555.37 457.312 556.228C456.709 556.803 456.113 557.383 455.514 557.961C453.199 558.394 450.884 558.828 448.572 559.269C433.135 548.496 417.634 537.869 402.149 527.238L377.084 509.92C368.734 504.147 360.4 498.356 352.153 492.448C343.834 486.642 335.633 480.68 327.463 474.68C319.24 468.747 311.235 462.542 303.221 456.352C295.262 450.095 287.399 443.713 279.957 436.881C272.572 430.037 265.112 422.993 260.434 413.915C262.038 418.785 264.959 423.095 267.931 427.267C269.522 429.269 271.105 431.298 272.782 433.233C274.502 435.125 276.161 437.091 277.936 438.931C285.005 446.345 292.538 453.276 300.316 459.893C315.825 473.191 332.175 485.406 348.765 497.232C365.428 508.963 382.375 520.268 399.646 531.049C415.445 540.938 431.46 550.483 447.833 559.411C437.254 561.436 426.69 563.502 416.14 565.603L391.443 570.466C383.216 572.096 374.988 573.724 366.743 575.222C358.518 576.838 350.269 578.288 342.018 579.712C333.778 581.22 325.498 582.424 317.229 583.677C308.951 584.846 300.655 585.909 292.331 586.466C284.032 586.993 275.593 587.455 267.477 585.13C271.274 587.025 275.517 587.811 279.708 588.483C281.813 588.71 283.93 588.95 286.047 589.083C288.162 589.167 290.288 589.328 292.404 589.347C300.884 589.461 309.348 589.015 317.758 588.227C334.595 586.724 351.263 584.044 367.83 580.983C384.378 577.806 400.832 574.204 417.147 570.051C428.317 567.227 439.433 564.19 450.467 560.856C450.904 561.091 451.334 561.337 451.77 561.571C451.738 561.603 451.7 561.636 451.666 561.67C451.708 561.64 451.749 561.611 451.789 561.583C451.98 561.686 452.164 561.792 452.355 561.893C452.185 561.775 452.016 561.659 451.847 561.54C452.735 560.914 453.604 560.271 454.49 559.643C455.389 559.364 456.281 559.06 457.18 558.775C457.125 559.946 457.046 561.114 456.997 562.282C457.209 561.067 457.404 559.853 457.614 558.637C458.312 558.416 459.01 558.191 459.708 557.966C459.904 558.331 460.089 558.703 460.285 559.068C460.13 558.686 459.975 558.309 459.82 557.93C461.769 557.303 463.724 556.699 465.664 556.049C463.614 556.42 461.577 556.827 459.529 557.206C459.406 556.9 459.279 556.594 459.155 556.287C468.463 549.614 477.686 542.856 486.86 536.052L504.312 523.132C510.118 518.814 515.915 514.487 521.779 510.261C527.573 505.939 533.449 501.737 539.332 497.553C545.169 493.297 551.16 489.275 557.104 485.196C563.094 481.185 569.13 477.241 575.373 473.673C581.61 470.128 587.96 466.587 595.128 465.287C591.463 465.182 587.846 466.111 584.317 467.122ZM458.207 555.1C458.238 555.157 458.27 555.219 458.3 555.278C458.252 555.324 458.202 555.37 458.154 555.417C458.172 555.31 458.188 555.205 458.207 555.1ZM451.82 561.521C451.46 561.272 451.101 561.026 450.743 560.776C451.634 560.507 452.528 560.254 453.42 559.98C452.89 560.497 452.346 561 451.82 561.521ZM459.331 557.242C458.82 557.337 458.309 557.436 457.798 557.531C457.814 557.43 457.832 557.328 457.85 557.227C458.207 556.972 458.564 556.715 458.92 556.457C459.058 556.719 459.193 556.983 459.331 557.242Z" fill="#F2ECD7"/>
<path d="M656.15 546.703C661.001 539.542 674.959 540.531 682.119 545.382C685.091 547.395 693.995 555.394 703.046 564.576C696.148 546.023 690.272 525.468 689.121 520.015C686.86 509.315 692.371 492.508 703.07 490.248C713.771 487.99 725.609 501.134 727.87 511.835C728.041 512.634 728.214 513.786 728.385 515.225C730.784 505.868 732.893 498.558 733.951 495.526C738.265 483.176 754.314 469.389 766.666 473.703C779.016 478.017 782.993 498.799 778.68 511.148C776.862 516.357 768.382 532.915 758.257 549.999C770.277 538.379 781.68 528.421 785.457 525.532C795.091 518.165 814.548 515.661 821.918 525.295C829.287 534.926 821.778 553.048 812.145 560.416C807.042 564.319 784.669 576.735 763.667 586.117C778.147 586.555 791.493 587.676 795.542 588.286C805.455 589.78 818.12 599.909 816.625 609.82C815.132 619.732 800.046 625.676 790.133 624.18C781.95 622.948 737.412 608.677 722.95 598.157C710.88 598.32 670.933 575.634 664.553 571.311C657.391 566.46 651.3 553.864 656.15 546.703Z" fill="#5297FF"/>
<path d="M663.179 549.627C664.838 550.2 666.459 550.883 668.05 551.618C671.216 553.124 674.274 554.831 677.241 556.666C680.228 558.471 683.115 560.425 685.984 562.399C688.832 564.401 691.641 566.458 694.419 568.55C699.942 572.781 705.347 577.153 710.584 581.72C714.669 585.268 718.68 588.905 722.55 592.692C722.598 592.585 722.643 592.478 722.689 592.369C721.561 584.967 720.496 577.567 719.44 570.172L717.556 557.17C716.928 552.839 716.294 548.511 715.597 544.193C714.96 539.867 714.237 535.553 713.498 531.247C712.797 526.932 711.943 522.65 711.109 518.367C710.234 514.092 709.298 509.828 708.108 505.638C706.907 501.469 705.644 497.237 703.066 493.665C704.647 495.213 705.762 497.165 706.813 499.112C707.285 500.11 707.766 501.11 708.196 502.129C708.599 503.156 709.045 504.173 709.418 505.212C710.936 509.365 712.176 513.603 713.244 517.877C715.415 526.421 716.992 535.085 718.369 543.763C719.69 552.454 720.787 561.17 721.604 569.914C722.283 577.064 722.814 584.226 723.1 591.406C726.748 582.821 730.439 574.269 734.118 565.716L740.283 551.261C742.333 546.442 744.367 541.617 746.333 536.768C748.356 531.941 750.285 527.077 752.187 522.206C754.129 517.349 755.907 512.435 757.682 507.521C759.419 502.593 761.074 497.634 762.421 492.597C763.737 487.573 765.032 482.435 764.541 477.189C765.174 479.758 765.079 482.438 764.927 485.074C764.781 486.385 764.65 487.706 764.447 489.01C764.218 490.309 764.032 491.623 763.762 492.913C762.716 498.088 761.332 503.182 759.761 508.208C756.653 518.274 752.898 528.105 748.928 537.836C744.905 547.544 740.645 557.144 736.108 566.616C732.001 575.21 727.71 583.721 723.12 592.071C723.137 592.481 723.152 592.892 723.165 593.302C723.45 593.583 723.727 593.868 724.01 594.149C725.111 594.375 726.217 594.599 727.318 594.831C734.788 589.809 742.292 584.862 749.786 579.909L761.912 571.838C765.951 569.148 769.986 566.449 773.979 563.694C778.004 560.985 781.975 558.206 785.933 555.405C789.912 552.638 793.794 549.739 797.677 546.848C801.535 543.922 805.35 540.937 808.965 537.733C812.554 534.523 816.178 531.217 818.491 526.916C817.682 529.231 816.251 531.266 814.797 533.237C814.02 534.18 813.245 535.135 812.427 536.047C811.588 536.938 810.777 537.865 809.913 538.731C806.471 542.216 802.812 545.465 799.037 548.564C791.511 554.791 783.59 560.497 775.56 566.011C767.494 571.479 759.296 576.742 750.949 581.752C743.311 586.347 735.574 590.775 727.672 594.907C732.713 595.963 737.746 597.041 742.773 598.134L754.54 600.668C758.461 601.517 762.38 602.361 766.311 603.148C770.23 603.989 774.164 604.757 778.096 605.505C782.024 606.296 785.973 606.943 789.916 607.611C793.865 608.241 797.824 608.818 801.799 609.153C805.764 609.476 809.794 609.767 813.696 608.723C811.863 609.598 809.825 609.94 807.816 610.224C806.808 610.315 805.793 610.412 804.78 610.458C803.767 610.48 802.751 610.539 801.737 610.53C797.683 610.514 793.642 610.229 789.627 609.78C781.589 608.92 773.639 607.498 765.743 605.896C757.858 604.236 750.02 602.375 742.254 600.252C736.937 598.807 731.646 597.264 726.4 595.576C726.19 595.685 725.979 595.796 725.769 595.905C725.786 595.922 725.804 595.938 725.819 595.955C725.8 595.94 725.782 595.925 725.763 595.912C725.67 595.958 725.579 596.007 725.486 596.053C725.57 595.999 725.651 595.947 725.733 595.891C725.314 595.584 724.904 595.268 724.485 594.959C724.057 594.818 723.632 594.668 723.206 594.525C723.222 595.084 723.25 595.644 723.264 596.203C723.173 595.62 723.09 595.037 723 594.456C722.668 594.342 722.336 594.228 722.004 594.115C721.907 594.287 721.815 594.462 721.718 594.635C721.796 594.455 721.875 594.278 721.952 594.096C721.026 593.781 720.094 593.477 719.171 593.15C720.149 593.345 721.12 593.555 722.096 593.754C722.157 593.609 722.221 593.463 722.282 593.318C717.887 590.049 713.534 586.739 709.205 583.409L700.969 577.083C698.23 574.97 695.493 572.853 692.724 570.783C689.988 568.668 687.215 566.609 684.434 564.558C681.68 562.475 678.852 560.501 676.043 558.499C673.213 556.531 670.358 554.591 667.404 552.834C664.451 551.086 661.443 549.342 658.026 548.66C659.78 548.641 661.501 549.115 663.179 549.627ZM722.746 592.758C722.729 592.786 722.717 592.813 722.702 592.84C722.724 592.862 722.744 592.887 722.769 592.91C722.76 592.859 722.753 592.809 722.746 592.758ZM725.745 595.882C725.918 595.767 726.094 595.65 726.267 595.533C725.842 595.396 725.417 595.271 724.994 595.132C725.242 595.384 725.498 595.628 725.745 595.882ZM722.193 593.771C722.437 593.821 722.676 593.874 722.92 593.924C722.913 593.875 722.908 593.825 722.902 593.776C722.733 593.65 722.562 593.525 722.393 593.399C722.325 593.523 722.261 593.648 722.193 593.771Z" fill="#F6EDE2"/>
<path d="M283.172 225.261L279.262 225.192C280.268 168.95 303.933 126.798 317.951 106.678L321.16 108.914C307.398 128.671 284.16 170.055 283.172 225.261Z" fill="#0066FF" fill-opacity="0.6"/>
<path d="M326.243 82.7717C319.45 93.0401 318.379 110.313 318.379 110.313C318.379 110.313 333.86 102.572 340.653 92.304C347.445 82.0355 347.553 76.8237 342.978 73.1301C338.405 69.4364 333.036 72.5032 326.243 82.7717Z" fill="#0066FF" fill-opacity="0.6"/>
<path d="M326.617 124.938C314.367 126.18 300.318 136.285 300.318 136.285C300.318 136.285 316.11 143.369 328.359 142.127C340.607 140.885 344.711 137.67 344.676 131.791C344.641 125.912 338.866 123.696 326.617 124.938Z" fill="#0066FF" fill-opacity="0.6"/>
<path d="M298.184 193.268C289.363 198.01 281.944 209.973 281.944 209.973C281.944 209.973 296.015 210.388 304.836 205.646C313.655 200.904 315.744 197.212 313.889 192.804C312.034 188.398 307.006 188.528 298.184 193.268Z" fill="#0066FF" fill-opacity="0.6"/>
<path d="M314.542 155.583C300.846 158.685 286.339 172.077 286.339 172.077C286.339 172.077 305.2 177.906 318.897 174.803C332.593 171.699 336.795 167.491 335.94 160.841C335.084 154.189 328.239 152.479 314.542 155.583Z" fill="#0066FF" fill-opacity="0.6"/>
<path d="M289.818 103.645C294.423 114.45 307.614 124.378 307.614 124.378C307.614 124.378 309.585 107.985 304.978 97.182C300.372 86.3774 296.279 83.5533 290.933 85.2527C285.59 86.9521 285.212 92.8405 289.818 103.645Z" fill="#0066FF" fill-opacity="0.6"/>
<path d="M264.654 140.296C272.585 153.099 291.23 163.13 291.23 163.13C291.23 163.13 290.551 141.971 282.62 129.167C274.69 116.365 268.954 113.577 262.511 116.766C256.065 119.956 256.724 127.494 264.654 140.296Z" fill="#0066FF" fill-opacity="0.6"/>
<path d="M262.269 187.121C269.148 195.797 283.615 201.54 283.615 201.54C283.615 201.54 281.322 186.144 274.443 177.468C267.563 168.789 263.137 167.241 258.702 170.117C254.265 172.995 255.389 178.444 262.269 187.121Z" fill="#0066FF" fill-opacity="0.6"/>
<path d="M453.601 576.508L448.712 648.867L618.852 643L608.096 575.53L453.601 576.508Z" fill="#33A7C0"/>
<path d="M521.981 165.445C522.416 189.425 542.208 208.515 566.189 208.081C590.169 207.647 609.255 187.853 608.82 163.873C608.386 139.893 588.596 120.803 564.616 121.237C540.634 121.671 521.547 141.465 521.981 165.445Z" fill="#335368"/>
<path d="M590.569 182.122C576.178 158.745 568.126 145.696 539.988 144.984C535.182 144.864 529.804 145.094 523.693 145.704C496.31 148.435 474.938 171.574 475.699 199.083C476.199 217.176 481.637 234.374 491.757 246.369C510.655 255.294 533.398 260.665 547.228 260.414C555.385 260.266 563.029 258.11 569.718 254.44C570.233 254.149 570.75 253.864 571.261 253.554C571.311 253.523 571.362 253.495 571.412 253.465C577.239 249.886 582.698 244.93 587.291 238.06C591.273 232.104 594.601 224.709 596.95 215.52C600.968 199.8 604.704 196.89 604.704 196.89C604.704 196.89 598.201 194.52 590.569 182.122Z" fill="#EF8C55"/>
<path d="M542.902 277.777C547.036 268.576 554.845 260.859 564.174 257.024L561.599 257.525C567.724 252.064 571.539 244.081 571.378 235.234C571.086 219.13 557.794 206.31 541.691 206.602C525.589 206.893 454.961 266.422 459.813 307.306C467.53 344.913 559.139 353.59 559.139 353.59C559.139 353.59 534.314 322.838 537.318 297.361C538.161 290.221 540.285 283.602 542.902 277.777Z" fill="#EF8C55"/>
<path d="M559.01 353.718C559.01 353.718 592.244 390.425 592.03 442.43C591.818 494.433 608.108 574.167 608.108 574.167C554.63 600.801 488.159 592.964 453.658 577.941C453.658 577.941 421.767 496.027 415.744 418.713C409.722 341.399 469.183 306.811 469.183 306.811C496.886 305.154 529.578 332.933 559.01 353.718Z" fill="#445094"/>
<path d="M572.738 154.711C572.738 154.711 561.69 258.318 500.036 287.762C437.508 318.912 424.827 367.364 424.827 367.364C424.827 367.364 403.9 355.323 401.023 324.173C398.147 293.025 435.571 285.754 457.237 221.514C468.954 186.775 476.492 152.645 515.925 144.184C555.139 135.77 572.738 154.711 572.738 154.711Z" fill="#335368"/>
<path d="M562.25 184.127C563.11 182.318 564.342 180.717 565.738 179.276C567.144 177.84 568.752 176.565 570.587 175.622C572.425 174.707 574.469 174.091 576.566 174.071C578.669 174.083 580.696 174.798 582.315 175.94C580.344 175.54 578.494 175.346 576.668 175.594C574.858 175.909 573.126 176.509 571.481 177.361C569.816 178.171 568.279 179.281 566.748 180.414C565.232 181.577 563.748 182.817 562.25 184.127Z" fill="#335368"/>
<path d="M574.824 194.331C574.31 192.826 574.194 191.166 574.698 189.512C574.935 188.684 575.413 187.857 576.145 187.226C576.871 186.609 577.83 186.218 578.733 186.154C579.648 186.06 580.523 186.181 581.402 186.474C582.267 186.797 583.048 187.379 583.576 188.101C584.65 189.548 584.88 191.303 584.577 192.851C584.081 191.362 583.406 189.992 582.436 189.115C581.489 188.248 580.218 187.95 578.936 188.097C577.699 188.172 576.744 188.864 576.105 190.088C575.462 191.295 575.109 192.784 574.824 194.331Z" fill="#335368"/>
<path d="M688.735 166.403C687.039 166.151 685.443 165.942 683.967 165.778C683.951 165.778 683.933 165.779 683.916 165.779C679.199 165.258 675.61 165.119 673.4 164.999C661.186 164.175 657.218 162.428 646.04 163.982C630.451 166.148 618.72 178.606 616.042 194.005C615.315 198.187 612.38 200.527 608.775 202.773C602.932 206.414 599.315 211.403 599.3 216.923C599.273 228.142 614.253 238.417 632.542 238.462C635.902 238.471 639.143 238.167 642.201 237.606L667.68 234.973C668.867 235.119 669.109 235.087 671.046 235.582C671.434 235.674 671.822 235.768 672.192 235.875C676.619 236.855 681.367 237.066 686.268 236.385C706.314 233.599 721.225 217.153 718.44 197.107C716.229 181.195 703.793 169.266 688.735 166.403Z" fill="#C9A692"/>
<path d="M716.442 283.052C702.336 293.711 671.276 292.489 669.512 308.558C668.221 320.306 644.024 324.509 643.04 312.73C642.433 305.461 648.714 296.508 651.807 292.374C654.369 287.217 665.286 289.286 691.534 258.967C707.128 240.955 726.894 241.787 732.134 251.652C737.373 261.517 735.449 268.688 716.442 283.052Z" fill="#B28B79"/>
<path d="M767.747 362.297C765.525 372.169 774.209 372.246 784.946 385.109C796.417 398.85 797.021 405.489 805.886 402.773C808.843 401.823 810.113 390.568 798.319 376.758C783.942 359.941 770.379 350.605 767.747 362.297Z" fill="#335368"/>
<path d="M734.781 185.573C717.749 174.986 702.918 169.824 692.227 167.137C690.565 166.718 688.997 166.353 687.544 166.044C685.153 165.664 682.697 165.508 680.198 165.605C659.975 166.397 644.729 183.269 645.52 203.49C646.102 218.338 655.072 229.593 667.792 234.23C668.169 234.36 668.548 234.49 668.906 234.633C687.147 241.902 679.939 264.212 683.169 275.126C684.575 279.879 686.264 284.434 688.174 288.782C687.642 292.434 687.206 296.148 686.902 299.931C682.523 354.217 703.883 400.235 734.613 402.716C765.342 405.197 798.454 363.375 798.184 308.912C797.881 247.69 762.928 203.069 734.781 185.573Z" fill="#C9A692"/>
<path d="M606.763 202.969C603.65 205.676 602.137 210.474 604.011 211.806C605.631 212.955 609.855 211.58 611.96 209.135C614.457 206.235 614.131 201.641 612.072 200.821C610.16 200.062 607.087 202.687 606.763 202.969Z" fill="#335368"/>
<path d="M625.621 198.248C625.088 197.264 624.907 196.074 625.175 194.894C625.404 193.755 626.264 192.371 627.889 192.088C629.531 191.915 630.736 193.014 631.267 194.046C631.849 195.11 631.997 196.303 631.75 197.396C631.193 196.425 630.663 195.581 630.026 194.933C629.39 194.283 628.667 193.925 628.158 194.025C627.641 194.066 627.041 194.607 626.607 195.406C626.169 196.203 625.891 197.162 625.621 198.248Z" fill="#335368"/>
<path d="M640.215 179.271C639.623 171.456 655.925 157.344 658.466 143.664C661.008 129.983 667.438 130.077 672.685 150.079C677.933 170.081 687.026 178.69 677.934 187.851C668.841 197.012 640.808 187.087 640.215 179.271Z" fill="#335368"/>
<path d="M599.397 396.082C599.399 396.082 599.401 396.082 599.402 396.082C598.662 395.357 521.179 319.666 483.637 319.924C446.721 320.176 422.963 362.468 454.237 398.048C498.498 448.405 540.833 499.705 589.206 501.067C591.034 501.164 592.885 501.17 594.754 501.073C623.846 499.568 646.208 474.743 644.7 445.625C643.37 419.951 623.922 399.524 599.397 396.082ZM539.551 453.739C539.462 452.858 539.392 451.971 539.346 451.078C539.392 451.971 539.462 452.858 539.551 453.739ZM556.016 486.907C555.79 486.696 555.566 486.486 555.345 486.27C555.566 486.486 555.79 486.696 556.016 486.907ZM554.267 485.194C554.039 484.961 553.814 484.728 553.59 484.491C553.814 484.728 554.039 484.961 554.267 485.194ZM552.6 483.405C552.371 483.146 552.144 482.886 551.919 482.623C552.144 482.886 552.371 483.146 552.6 483.405ZM551.006 481.527C550.78 481.247 550.558 480.967 550.338 480.684C550.558 480.967 550.781 481.249 551.006 481.527ZM549.497 479.57C549.278 479.27 549.061 478.97 548.847 478.664C549.061 478.97 549.278 479.27 549.497 479.57ZM548.076 477.539C547.864 477.219 547.657 476.895 547.452 476.571C547.657 476.895 547.864 477.219 548.076 477.539ZM546.749 475.438C546.545 475.098 546.347 474.752 546.151 474.405C546.347 474.752 546.545 475.098 546.749 475.438ZM545.516 473.265C545.323 472.901 545.138 472.537 544.95 472.169C545.138 472.537 545.323 472.901 545.516 473.265ZM544.384 471.025C544.202 470.643 544.031 470.256 543.858 469.869C544.031 470.256 544.202 470.643 544.384 471.025ZM543.354 468.722C543.187 468.322 543.03 467.913 542.872 467.508C543.03 467.913 543.187 468.322 543.354 468.722ZM542.431 466.356C542.278 465.933 542.138 465.505 541.996 465.076C542.138 465.503 542.278 465.933 542.431 466.356ZM541.62 463.938C541.483 463.495 541.362 463.043 541.237 462.593C541.362 463.043 541.483 463.495 541.62 463.938ZM540.922 461.458C540.802 460.99 540.701 460.516 540.592 460.042C540.699 460.516 540.802 460.99 540.922 461.458ZM540.343 458.934C540.24 458.425 540.154 457.908 540.065 457.392C540.154 457.908 540.24 458.425 540.343 458.934ZM539.884 456.359C539.798 455.786 539.73 455.204 539.661 454.624C539.73 455.204 539.798 455.786 539.884 456.359ZM557.176 487.966C557.393 488.156 557.612 488.342 557.833 488.531C557.612 488.342 557.393 488.156 557.176 487.966ZM569.667 496.168C569.669 496.168 569.669 496.168 569.669 496.168C569.669 496.168 569.669 496.168 569.667 496.168ZM559.086 489.568C559.292 489.736 559.504 489.895 559.712 490.059C559.504 489.895 559.292 489.736 559.086 489.568ZM561.07 491.085C561.261 491.224 561.454 491.357 561.647 491.494C561.454 491.357 561.261 491.224 561.07 491.085ZM563.125 492.506C563.291 492.615 563.461 492.72 563.627 492.827C563.459 492.72 563.291 492.615 563.125 492.506ZM565.244 493.828C565.377 493.907 565.514 493.979 565.647 494.056C565.514 493.979 565.377 493.907 565.244 493.828ZM567.426 495.049C567.508 495.091 567.593 495.132 567.675 495.175C567.593 495.132 567.508 495.091 567.426 495.049ZM591.897 395.564C591.032 395.565 590.163 395.587 589.292 395.632C590.163 395.587 591.032 395.565 591.897 395.564ZM594.428 395.619C594.285 395.612 594.138 395.614 593.995 395.608C594.138 395.614 594.285 395.612 594.428 395.619Z" fill="#EF8C55"/>
<path d="M452.754 410.627C456.532 414.761 460.255 418.911 464.171 422.884C468.08 426.858 472.041 430.777 476.097 434.596C480.154 438.414 484.26 442.178 488.458 445.844C492.662 449.496 496.865 453.176 501.232 456.625L500.523 456.724L504.037 452.556C505.207 451.163 506.39 449.782 507.597 448.418C506.58 449.929 505.541 451.42 504.49 452.904L501.337 457.356L501.054 457.756L500.625 457.455C491.441 450.999 482.844 443.769 474.784 435.972C470.733 432.094 466.858 428.032 463.181 423.801C459.438 419.627 456.006 415.178 452.754 410.627Z" fill="#EAA01B"/>
<path d="M572.673 364.007C572.673 364.007 484.658 281.057 445.417 333.029C406.176 385 501.188 456.436 501.188 456.436L572.673 364.007Z" fill="#445094"/>
<path d="M728.517 326.276C728.265 308.17 713.383 293.695 695.278 293.946C680.663 294.15 665.979 303.908 661.934 317.18C661.963 317.08 662.009 316.983 662.041 316.883L601.4 396.401L601.39 396.415C601.39 396.415 601.379 396.401 601.375 396.398C598.104 395.811 594.734 395.516 591.287 395.564C562.159 395.969 538.873 419.931 539.279 449.082C539.67 477.163 561.897 499.804 589.561 501.074C589.84 501.082 590.116 501.101 590.396 501.107C590.979 501.124 591.568 501.13 592.155 501.128C592.696 501.124 593.236 501.113 593.776 501.093C594.19 501.08 594.607 501.07 595.019 501.047C595.531 501.02 596.039 500.972 596.549 500.93C663.392 495.535 710.868 379.483 723.914 343.827C724.15 343.448 724.389 343.075 724.608 342.687C727.355 337.81 728.6 332.275 728.517 326.276ZM698.396 359.406C697.668 359.465 696.931 359.503 696.19 359.513C696.931 359.503 697.668 359.465 698.396 359.406ZM718.883 350.068C718.827 350.121 718.771 350.175 718.715 350.228C718.771 350.175 718.827 350.121 718.883 350.068ZM717.392 351.428C717.313 351.496 717.233 351.563 717.154 351.631C717.233 351.563 717.313 351.496 717.392 351.428ZM715.817 352.702C715.709 352.783 715.601 352.863 715.492 352.943C715.601 352.863 715.709 352.783 715.817 352.702ZM714.158 353.885C714.02 353.978 713.881 354.066 713.741 354.156C713.881 354.066 714.02 353.978 714.158 353.885ZM712.422 354.971C712.25 355.073 712.073 355.165 711.898 355.263C712.073 355.165 712.25 355.073 712.422 354.971ZM710.607 355.956C710.402 356.061 710.19 356.158 709.98 356.258C710.19 356.16 710.402 356.061 710.607 355.956ZM708.725 356.835C708.478 356.942 708.227 357.038 707.976 357.137C708.227 357.038 708.478 356.942 708.725 356.835ZM706.775 357.602C706.487 357.703 706.195 357.791 705.905 357.885C706.195 357.791 706.487 357.703 706.775 357.602ZM704.76 358.248C704.433 358.34 704.099 358.417 703.768 358.502C704.099 358.417 704.433 358.34 704.76 358.248ZM702.69 358.765C702.308 358.849 701.92 358.913 701.534 358.983C701.92 358.913 702.308 358.849 702.69 358.765ZM700.568 359.157C700.117 359.224 699.658 359.267 699.201 359.316C699.658 359.267 700.117 359.224 700.568 359.157ZM720.179 348.735C720.213 348.698 720.246 348.66 720.281 348.622C720.246 348.66 720.213 348.698 720.179 348.735ZM722.78 345.533C722.788 345.523 722.796 345.511 722.803 345.501C722.796 345.511 722.788 345.523 722.78 345.533ZM721.532 347.171C721.551 347.146 721.572 347.122 721.591 347.096C721.572 347.122 721.551 347.146 721.532 347.171Z" fill="#EF8C55"/>
<path d="M755.913 279.596L752.232 276.857L734.925 295.983L750.322 266.853C751.865 263.933 750.661 260.318 747.678 258.903C745.239 257.743 742.322 258.423 740.646 260.542L721.973 284.126L734.205 250.9C735.307 247.906 733.781 244.584 730.792 243.466L730.313 243.285C727.61 242.273 724.576 243.404 723.192 245.936L706.427 276.614L713.368 248.197C714.066 245.343 712.517 242.419 709.766 241.388L708.84 241.043C706.08 240.01 702.986 241.211 701.644 243.837L679.557 287.088L669.554 271.45C667.962 268.96 664.752 268.064 662.103 269.373L661.148 269.843C658.994 270.906 657.717 273.187 657.94 275.58L661.839 317.618L661.843 317.659L661.809 317.705C661.78 317.806 661.739 317.903 661.709 318.004C660.825 321.196 660.431 324.601 660.568 328.087C661.276 346.181 678.931 360.169 697.024 359.461C708.643 359.006 718.865 352.439 724.344 343.081C724.463 342.728 724.584 342.367 724.698 342.03L725.989 339.865L757.429 287.225C758.956 284.67 758.3 281.374 755.913 279.596Z" fill="#EF8C55"/>
<path d="M739.855 256.462C725.749 267.121 692.822 267.036 691.058 283.105C689.767 294.854 661.405 296.784 660.148 285.032C658.656 271.092 673.025 255.174 692.755 244.696C713.795 233.521 735.543 216.593 749.241 223.952C759.081 229.239 758.862 242.098 739.855 256.462Z" fill="#C9A692"/>
<path d="M739.855 256.462C734.851 260.363 728.741 262.471 722.814 264.526C716.842 266.54 710.747 268.187 704.989 270.585C702.122 271.786 699.322 273.176 696.933 275.043C695.758 275.989 694.659 277.019 693.807 278.22C692.972 279.43 692.384 280.779 692.089 282.2L691.902 283.293C691.816 283.723 691.773 284.166 691.639 284.585C691.385 285.425 691.027 286.238 690.54 286.955C689.584 288.409 688.277 289.544 686.877 290.44C684.05 292.215 680.858 293.166 677.645 293.613C674.426 294.051 671.123 294.016 667.906 293.233C666.306 292.829 664.721 292.233 663.278 291.308C661.847 290.389 660.539 289.086 659.82 287.425C659.492 286.598 659.263 285.697 659.216 284.851L659.135 282.378L659.382 279.927C659.48 279.113 659.719 278.329 659.884 277.529C660.716 274.376 662.077 271.409 663.757 268.671C667.186 263.227 671.681 258.583 676.629 254.62C681.58 250.649 686.923 247.19 692.566 244.341L692.577 244.334L692.617 244.317C695.321 243.353 697.994 242.218 700.565 240.906C703.116 239.572 705.643 238.107 707.735 236.086C705.761 238.223 703.297 239.859 700.774 241.295C698.234 242.727 695.607 243.975 692.892 245.075L692.943 245.051C682.087 251.178 671.823 259.062 665.218 269.563C663.629 272.202 662.371 275.027 661.622 277.964C661.478 278.706 661.258 279.439 661.176 280.188L660.967 282.435L661.06 284.68C661.107 285.408 661.29 286.038 661.537 286.677C662.667 289.188 665.512 290.658 668.375 291.34C671.279 292.061 674.383 292.141 677.394 291.75C680.401 291.364 683.389 290.478 685.913 288.917C687.163 288.134 688.284 287.159 689.069 285.985C689.474 285.406 689.756 284.762 689.966 284.101C690.075 283.772 690.103 283.422 690.183 283.084L690.404 281.851C690.758 280.196 691.466 278.618 692.437 277.246C693.428 275.885 694.641 274.74 695.944 273.752C698.578 271.803 701.511 270.456 704.47 269.3C710.414 267.024 716.529 265.475 722.557 263.702C728.556 261.915 734.635 260.032 739.855 256.462Z" fill="#94715D"/>
<path d="M668.2 291.391C668.2 291.391 666.25 285.667 668.36 281.566" stroke="#987561" stroke-width="2.15998" stroke-miterlimit="10"/>
<path d="M677.538 291.592C677.538 291.592 675.588 285.868 677.699 281.767" stroke="#977460" stroke-width="2.15998" stroke-miterlimit="10"/>
<path d="M576.481 213.862C578.859 216.567 581.349 218.965 584.319 220.39C585.778 221.15 587.381 221.536 589.034 221.67C590.708 221.871 592.401 221.57 594.22 221.365C592.706 222.325 590.944 223.108 589.041 223.196C587.156 223.376 585.184 223.005 583.473 222.154C581.761 221.305 580.261 220.1 579.085 218.668C577.909 217.24 576.964 215.626 576.481 213.862Z" fill="#335368"/>
<defs>
<linearGradient id="paint0_linear_40_854" x1="104" y1="309" x2="104" y2="415" gradientUnits="userSpaceOnUse">
<stop stop-color="#CEE2FF"/>
<stop offset="1" stop-color="#95C0FF" stop-opacity="0"/>
</linearGradient>
<linearGradient id="paint1_linear_40_854" x1="914.427" y1="494.819" x2="914.427" y2="669.718" gradientUnits="userSpaceOnUse">
<stop stop-color="#CEE2FF"/>
<stop offset="1" stop-color="#9CC4FE"/>
</linearGradient>
<linearGradient id="paint2_linear_40_854" x1="570.644" y1="-34.0381" x2="570.644" y2="647.155" gradientUnits="userSpaceOnUse">
<stop stop-color="#73ACFF"/>
<stop offset="1" stop-color="#EAF2FF"/>
</linearGradient>
</defs>
</svg>
