<svg width="35" height="47" viewBox="0 0 35 47" fill="none" xmlns="http://www.w3.org/2000/svg">
<path d="M30.0841 30.9115C30.4177 30.8123 30.8302 30.9099 31.0587 31.1802C31.2869 31.45 31.2375 31.7616 31.0441 32.0342C30.8573 32.2976 30.6184 32.5187 30.4297 32.7804C30.2471 33.0336 30.1148 33.3099 29.9645 33.5845C29.3613 34.6854 28.3287 36.073 26.9038 35.9928C26.5819 35.9746 26.2681 35.8617 25.9983 35.6852C25.4572 35.3314 25.0985 34.7129 25.0603 34.0675C25.015 33.3002 25.4691 32.6718 26.053 32.2231C26.5 31.8796 27.0003 31.5348 27.5552 31.3961C28.094 31.2616 28.6617 31.4179 29.1988 31.2686C29.46 31.196 29.6967 31.0541 30.0841 30.9115Z" fill="#B0CFFF"/>
<path d="M8.11658 32.0735C8.24159 32.3101 8.38409 32.545 8.43 32.8087C8.4759 33.0724 8.39895 33.3793 8.16997 33.5178C8.03945 33.5968 7.88115 33.6104 7.72949 33.6278C6.72914 33.7425 5.70204 34.1603 5.1474 35.0007C4.55797 35.8937 4.62464 37.0993 5.064 38.075C5.50335 39.0507 6.26379 39.841 7.0346 40.5832C7.31482 40.8531 7.60542 41.129 7.76484 41.4838C7.92425 41.8387 7.92023 42.2976 7.64843 42.576C7.20356 43.0314 6.34626 42.7748 5.88595 43.2146C5.52177 43.5626 5.61331 44.2079 5.96085 44.5725C6.30839 44.9371 6.82759 45.0783 7.32623 45.1495C8.43056 45.3071 9.58687 45.191 10.5986 44.7212C11.6104 44.2513 12.4655 43.4127 12.8635 42.3707C13.2351 41.3977 13.1981 40.3234 13.1559 39.2827C13.051 36.6986 12.9457 34.1091 12.5778 31.5491C12.4016 30.3226 12.1612 29.0911 11.6486 27.9631C11.3711 27.3524 10.98 26.7447 10.3692 26.4675C9.78154 26.2009 8.79698 26.2317 8.22327 26.5475C7.69069 26.8406 7.60682 27.4887 7.50276 28.0867C7.26798 29.4343 7.47676 30.8618 8.11658 32.0735Z" fill="#0066FF" fill-opacity="0.6"/>
<path d="M17.1528 43.7777C18.5521 43.8587 20.0942 43.7151 21.101 42.7398C21.9721 41.896 22.2445 40.6168 22.364 39.4099C22.5168 37.866 22.4888 36.3042 22.2804 34.7668C22.148 33.7882 21.9234 32.7773 21.2992 32.012C20.6848 31.2588 19.7228 30.8252 18.7523 30.7718C17.7817 30.7185 16.8096 31.0255 15.9904 31.5488C15.2367 32.0304 14.6008 32.6949 14.1529 33.4692C13.2583 35.0154 13.1511 36.8875 13.2193 38.6726C13.2595 39.7274 13.081 41.5312 13.6531 42.4658C14.2932 43.5114 16.0654 43.7148 17.1528 43.7777Z" fill="#0066FF" fill-opacity="0.6"/>
<path d="M27.3291 32.0735C27.204 32.3101 27.0614 32.545 27.0155 32.8087C26.9695 33.0724 27.0465 33.3793 27.2755 33.5178C27.406 33.5968 27.5643 33.6104 27.716 33.6278C28.7163 33.7425 29.7436 34.1603 30.2982 35.0007C30.8877 35.8937 30.8209 37.0993 30.3815 38.075C29.9422 39.0507 29.1817 39.841 28.4108 40.5832C28.1306 40.8531 27.8401 41.129 27.6807 41.4838C27.5213 41.8387 27.5252 42.2976 27.797 42.576C28.2419 43.0314 29.0994 42.7748 29.5597 43.2146C29.9239 43.5626 29.8322 44.2079 29.4847 44.5725C29.1372 44.9371 28.6179 45.0783 28.1193 45.1495C27.015 45.3071 25.8586 45.191 24.8468 44.7212C23.835 44.2513 22.98 43.4127 22.582 42.3707C22.2103 41.3977 22.2474 40.3234 22.2897 39.2827C22.3946 36.6986 22.4998 34.1091 22.8676 31.5491C23.0439 30.3226 23.2844 29.0911 23.797 27.9631C24.0745 27.3524 24.4654 26.7447 25.0763 26.4675C25.6639 26.2009 26.6485 26.2317 27.2222 26.5475C27.7548 26.8406 27.8387 27.4887 27.9428 28.0867C28.1776 29.4343 27.9689 30.8618 27.3291 32.0735Z" fill="#0066FF" fill-opacity="0.6"/>
<path d="M24.6786 22.4421C25.5522 22.681 26.1316 23.4892 26.6083 24.2592C27.1476 25.1305 27.6643 26.0728 27.6872 27.0972C27.7102 28.1217 27.0742 29.2315 26.0635 29.4005C25.9106 29.4261 25.7355 29.4395 25.6393 29.5612C25.5904 29.6231 25.5716 29.7031 25.5543 29.78C24.607 34.0006 24.0046 38.2983 23.755 42.6167C23.7455 42.7803 23.7374 42.9497 23.7957 43.1029C23.8784 43.3205 24.0786 43.467 24.2659 43.6052C24.5575 43.8204 24.8487 44.0535 25.0306 44.367C25.2124 44.6805 25.2644 45.0939 25.0707 45.4001C24.8805 45.7007 24.5108 45.8292 24.1633 45.9054C23.2738 46.1005 22.3395 46.0892 21.4549 45.8725C21.0284 45.768 20.5942 45.6035 20.3063 45.2718C19.9742 44.8893 19.8935 44.3535 19.8597 43.848C19.7462 42.1481 20.0055 40.447 20.0471 38.7438C20.0697 37.8178 20.0278 36.8903 19.922 35.9703C19.8917 35.7072 19.8527 35.435 19.7094 35.2124C19.5721 34.9993 19.352 34.853 19.1246 34.7411C18.6544 34.5096 18.1251 34.3993 17.6016 34.4238H17.6901C17.1665 34.3993 16.6373 34.5096 16.1671 34.7411C15.9397 34.853 15.7196 34.9993 15.5823 35.2124C15.4389 35.435 15.4 35.7072 15.3698 35.9703C15.2638 36.8903 15.2219 37.8178 15.2446 38.7438C15.2862 40.447 15.5454 42.1481 15.4319 43.848C15.3982 44.3535 15.3176 44.8893 14.9855 45.2718C14.6976 45.6035 14.2632 45.768 13.8366 45.8725C12.952 46.0892 12.0179 46.1005 11.1283 45.9054C10.7809 45.8292 10.4112 45.7007 10.221 45.4001C10.0273 45.0939 10.0792 44.6805 10.2611 44.367C10.443 44.0535 10.7341 43.8204 11.0257 43.6052C11.213 43.467 11.4132 43.3205 11.496 43.1029C11.5543 42.9497 11.5462 42.7803 11.5367 42.6167C11.2871 38.2983 10.6847 34.0006 9.73731 29.78C9.72002 29.7031 9.70132 29.6231 9.65242 29.5612C9.5562 29.4395 9.38117 29.4261 9.22811 29.4005C8.21747 29.2315 7.58148 28.1217 7.60449 27.0972C7.62739 26.0728 8.14426 25.1305 8.68348 24.2592C9.16014 23.4892 9.73956 22.681 10.6131 22.4421" fill="#B0CFFF"/>
<path d="M9.84672 21.2473C9.84672 21.2473 9.14772 26.1012 17.8891 26.452C17.8891 26.452 26.3269 26.2766 25.7477 21.2473H9.84672Z" fill="#949494"/>
<path d="M8.57519 4.19082C7.39223 6.07719 6.99102 8.3412 6.73867 10.5534C6.50753 12.5798 6.38243 14.6436 6.75522 16.6488C7.128 18.6539 8.04149 20.6143 9.59967 21.9301C11.8829 23.8585 15.1093 24.1167 18.0978 24.1156C21.0676 24.1146 24.332 23.8216 26.4336 21.7231C27.914 20.2448 28.5438 18.0939 28.6606 16.005C28.7775 13.9161 28.4394 11.8325 28.2626 9.74781C28.1331 8.21965 28.0873 6.66736 27.6518 5.19688C27.1124 3.37578 25.8837 1.7444 23.9542 1.31738C22.0606 0.898408 20.1393 1.72906 18.2345 1.70064C16.5448 1.6753 14.8801 0.938613 13.1957 1.09139C11.2756 1.26558 9.57443 2.59749 8.57519 4.19082Z" fill="#B0CFFF"/>
<path d="M15.0367 9.4002C14.8686 10.072 13.637 10.3519 12.2931 10.016C10.9496 9.68014 9.99799 8.84023 10.1661 8.16852C10.2218 7.94468 10.3899 7.72057 10.7258 7.55273C10.7258 7.49673 10.7818 7.49673 10.7818 7.49673C11.0056 7.44072 11.2855 7.32861 11.6213 7.32861C12.0133 7.32861 12.4612 7.38462 12.9092 7.49673C14.2528 7.83258 15.2044 8.6724 15.0367 9.4002Z" fill="#949494"/>
<path d="M25.7293 8.44835C25.8974 9.12015 24.8894 9.95996 23.5459 10.2398C22.2023 10.5758 20.9709 10.2398 20.8028 9.56811C20.7467 9.28826 20.9148 8.95231 21.2507 8.61646C21.5306 8.33662 21.9224 8.1125 22.4261 7.94467C22.5942 7.83265 22.7623 7.77655 22.9862 7.72055C24.3297 7.4407 25.5615 7.77655 25.7293 8.44835Z" fill="#949494"/>
<path d="M12.0694 8.00069C12.0694 8.44828 11.7334 8.78422 11.3415 8.78422C10.8935 8.78422 10.5577 8.44828 10.5577 8.00069C10.5577 7.83258 10.6137 7.66484 10.7258 7.55273C10.7258 7.49673 10.7818 7.49673 10.7818 7.49673C11.0056 7.44063 11.2856 7.32861 11.6214 7.32861C11.9016 7.44063 12.0694 7.72047 12.0694 8.00069Z" fill="#383838"/>
<path d="M22.7624 8.56028C22.7624 8.95223 22.4261 9.28818 22.0345 9.28818C21.5866 9.28818 21.3067 9.00833 21.2507 8.61638C21.5306 8.33653 21.9225 8.11232 22.4262 7.94458C22.6503 8.05631 22.7624 8.28043 22.7624 8.56028Z" fill="#383838"/>
<path d="M17.9833 18.8269V15.2944V18.8269Z" fill="#0066FF"/>
<path d="M17.9833 18.8269V15.2944" stroke="#0066FF" stroke-width="2" stroke-miterlimit="10"/>
<path d="M11.127 18.8269C11.127 18.8269 13.2646 23.035 17.9587 18.8269C17.9587 18.8269 22.2602 22.7946 24.651 18.8269" fill="#0066FF"/>
<path d="M11.127 18.8269C11.127 18.8269 13.2646 23.035 17.9587 18.8269C17.9587 18.8269 22.2602 22.7946 24.651 18.8269" stroke="#0066FF" stroke-width="2" stroke-miterlimit="10"/>
<path d="M18.0548 10.5694C17.2247 10.5764 16.3334 10.6303 15.5762 11.0044C14.4528 11.5593 14.5673 12.669 15.109 13.619C15.5207 14.3409 16.9347 16.0943 17.8651 16.0811C19.5566 16.0569 21.1747 14.1175 21.2533 12.4411C21.3314 10.7778 19.2933 10.5591 18.0548 10.5694Z" fill="#0066FF"/>
<path d="M10.9355 2.67368C11.0074 2.28213 11.0271 1.85067 10.8152 1.51364C10.4051 0.861501 9.41893 0.943824 8.71857 1.26469C8.14537 1.52724 7.62067 1.8952 7.17845 2.34465C6.85165 2.67686 6.55877 3.06149 6.14434 3.27469C5.70425 3.50114 5.188 3.50317 4.7012 3.59297C2.7074 3.96064 1.20827 6.07153 1.518 8.07516C1.89258 10.4985 4.44385 12.3056 4.35854 14.7562C4.33662 15.3834 4.2249 16.1929 4.78786 16.4702C5.30334 16.7241 5.86933 16.2429 6.21266 15.7822C7.68285 13.8097 8.12743 11.803 8.37122 9.43645C8.62765 6.94779 10.4903 5.09713 10.9355 2.67368Z" fill="#0066FF" fill-opacity="0.6"/>
<path d="M24.7458 2.63737C24.6839 2.24412 24.6749 1.81227 24.8953 1.48072C25.3218 0.839177 26.3057 0.946468 26.9977 1.28497C27.564 1.56195 28.0791 1.94308 28.5098 2.40359C28.8281 2.74396 29.1113 3.1359 29.5202 3.35953C29.9544 3.59706 30.4704 3.61217 30.9548 3.71427C32.9386 4.13232 34.3838 6.28051 34.0234 8.27565C33.5876 10.6887 30.9914 12.4306 31.0146 14.8826C31.0207 15.5102 31.1118 16.3222 30.542 16.5852C30.0202 16.8259 29.4666 16.3306 29.135 15.8613C27.7153 13.8522 27.3216 11.8349 27.1378 9.46289C26.9445 6.96853 25.1295 5.07131 24.7458 2.63737Z" fill="#0066FF" fill-opacity="0.6"/>
</svg>
