<svg width="50" height="50" viewBox="0 0 50 50" fill="none" xmlns="http://www.w3.org/2000/svg">
<path d="M24.7672 33.8269C38.4363 33.8269 49.5345 37.4505 49.5345 41.9135C49.5345 46.3765 38.4363 50.0001 24.7672 50.0001C11.0982 50.0001 0 46.3765 0 41.9135C0 37.4505 11.0982 33.8269 24.7672 33.8269Z" fill="#E4E4E4"/>
<path d="M41.7497 31.7598C40.3755 32.2387 38.8347 30.2424 38.8347 30.2424C38.8347 30.2424 37.2957 32.6705 37.7754 32.9883C39.9799 34.4484 42.4082 35.3671 44.2405 32.361C43.4961 32.132 42.3796 31.9888 41.7497 31.7598Z" fill="#0066FF"/>
<path d="M23.825 30.7418C22.8516 36.1814 26.6281 36.0435 26.8571 36.9883C26.9599 37.4121 21.7897 37.6754 22.0474 39.794C22.2721 41.6413 30.8054 37.8784 31.8934 37.5635C40.5863 21.3201 24.1609 28.8646 23.825 30.7418Z" fill="#A39E88"/>
<path d="M14.117 25.0783C12.1702 26.6243 18.4344 37.1978 13.9453 40.3665C11.9984 41.7407 16.6431 42.2835 17.0945 40.252C17.5526 38.1906 18.6405 31.8349 18.5832 30.1744C18.5488 29.175 15.4081 24.053 14.117 25.0783Z" fill="#0066FF"/>
<path d="M26.0078 13.3791C25.5304 13.2758 23.393 11.0506 19.689 8.53645C15.9437 5.99425 12.6674 10.2379 11.8839 16.0703C11.7885 20.6701 13.4681 28.8582 17.7625 31.0913C23.2458 33.9426 32.7874 29.7054 32.9362 30.3278C33.2225 31.5685 27.2484 32.9236 32.4972 40.5391C32.8984 41.111 27.3439 41.6842 28.3745 43.402C29.3364 45.005 36.3946 41.7814 36.1045 41.1116C33.9478 36.34 39.1965 35.9011 40.399 30.2324C41.2628 26.0143 40.8379 22.5597 37.746 18.9523C34.8609 15.5865 30.3595 14.3334 26.0078 13.3791Z" fill="#3A89FF" fill-opacity="0.6"/>
<path d="M27.7256 28.2661C30.1112 22.0039 20.0273 29.249 21.5988 30.3274C24.519 32.3315 24.3752 41.4547 24.1946 43.0389C23.7105 46.8216 28.5311 44.9652 27.2102 41.5311C26.3513 39.298 26.8094 30.671 27.7256 28.2661Z" fill="#0066FF"/>
<path d="M17.0281 4.89431C10.2598 2.98152 8.8238 7.54488 8.90644 7.80882C9.71851 10.2854 10.6561 10.1322 11.3277 16.3845C11.53 18.3173 15.0935 19.2282 16.3786 18.6246C17.8737 17.9069 23.9136 13.2212 22.4978 10.817C22.0804 10.1049 23.7832 6.78407 17.0281 4.89431Z" fill="#0066FF"/>
<path d="M9.03136 5.32979C9.06365 6.07347 8.05704 8.18867 9.29163 8.61959C10.973 9.28588 10.122 7.06074 11.0198 6.58429C12.7376 5.66294 8.9741 4.01283 9.03136 5.32979Z" fill="black"/>
<path d="M9.03136 5.32979C9.06365 6.07347 8.05704 8.18867 9.29163 8.61959C10.973 9.28588 10.122 7.06074 11.0198 6.58429C12.7376 5.66294 8.9741 4.01283 9.03136 5.32979Z" stroke="black" stroke-width="2"/>
<path d="M14.989 6.80282C15.506 5.89801 17.1648 7.2609 16.4777 8.00527C16.0465 8.47239 14.5309 7.60445 14.989 6.80282Z" fill="black"/>
<path d="M19.6712 6.12874C21.4437 7.28434 21.6154 10.4076 21.8731 11.61C24.278 10.9802 23.6299 8.93965 24.5747 5.76176C23.1719 5.70451 21.0741 5.18397 19.6712 6.12874Z" fill="black"/>
</svg>
