<svg width="46" height="40" viewBox="0 0 46 40" fill="none" xmlns="http://www.w3.org/2000/svg">
<path d="M0.592952 16.528C1.78455 15.4238 4.37847 15.6443 5.80245 16.2146C6.49688 16.4931 6.84944 17.0331 6.43328 17.5696C6.24666 17.81 5.89351 18.0057 5.49951 18.1025C5.43539 18.2078 5.34989 18.3088 5.23458 18.3975C5.2053 18.4828 5.16615 18.565 5.10959 18.6381C4.77414 19.0704 4.09889 19.2633 3.41908 19.2092C2.49099 19.1362 1.36353 18.9743 0.725789 18.4947C-0.0447945 17.9151 -0.130521 17.1987 0.592952 16.528Z" fill="#0066FF" fill-opacity="0.6"/>
<path d="M6.12891 27.4258C1.99225 26.3077 2.16616 16.3519 9.63291 14.8212C11.4347 14.4139 15.9955 14.4539 17.8828 14.4903C18.5275 14.5027 19.1711 14.4306 19.7968 14.275C21.874 13.7588 23.2427 12.9994 23.3299 11.8565C23.6992 7.02419 27.6151 1.44228 30.0761 0.657858C32.5371 -0.126808 33.4467 -0.430308 34.9979 1.01444C38.9566 5.82869 45.1268 5.57936 45.1268 5.57936C45.1268 5.57936 45.4145 13.0417 37.2251 13.1008C35.5908 23.5631 32.6376 26.406 30.5185 27.8615C26.0022 30.323 20.7782 29.5682 20.4246 29.5178C17.864 29.1507 15.315 28.5718 12.8572 27.7641C10.0946 26.8565 8.33033 27.6467 6.12891 27.4258Z" fill="#0066FF" fill-opacity="0.6"/>
<path d="M32.3054 17.123C33.1542 17.2178 35.5256 17.1745 36.9292 17.0982C38.3334 17.0207 37.9502 13.6053 37.0792 13.7548C36.9362 14.0938 36.818 14.8808 36.818 14.8808C28.9757 15.2775 24.237 9.67402 23.8089 8.9841C23.3817 8.29127 21.6287 9.7011 22.2507 10.7394C22.8715 11.779 25.0142 16.3088 32.3054 17.123Z" fill="#0066FF" fill-opacity="0.6"/>
<path d="M42.0632 9.06628C42.3216 9.44103 42.6616 9.73186 43.0646 9.92194C43.0688 9.89753 43.0701 9.87428 43.0815 9.84936C43.424 9.09928 43.9084 8.24453 44.011 7.41353C42.538 6.96294 42.6967 4.43286 44.4886 4.43286C46.4325 4.43286 46.4538 7.40978 44.5552 7.47953C44.4277 8.39311 43.9385 9.30078 43.5602 10.1294C43.5543 10.1423 43.5447 10.1489 43.5377 10.1596C43.6645 10.347 43.5216 10.6709 43.2473 10.5864C42.5533 10.3724 41.9949 9.94136 41.5844 9.34628C41.3806 9.05111 41.8615 8.77444 42.0632 9.06628Z" fill="#0066FF" fill-opacity="0.6"/>
<path d="M37.8596 5.37085C37.8596 6.0646 37.2817 6.62634 36.5688 6.62634C35.8565 6.62634 35.2782 6.0646 35.2782 5.37085" fill="#0066FF" fill-opacity="0.6"/>
<path d="M37.8596 5.37085C37.8596 6.0646 37.2817 6.62634 36.5688 6.62634C35.8565 6.62634 35.2782 6.0646 35.2782 5.37085" stroke="#171313" stroke-width="2" stroke-miterlimit="10" stroke-linecap="round"/>
<path d="M5.10991 22.4417C4.99743 23.8193 5.77981 28.3696 6.6151 30.8779C7.17843 32.5695 7.90507 34.3182 8.52489 34.3057" fill="#0066FF" fill-opacity="0.6"/>
<path d="M5.10991 22.4417C4.99743 23.8193 5.77981 28.3696 6.6151 30.8779C7.17843 32.5695 7.90507 34.3182 8.52489 34.3058" stroke="#0455CE" stroke-opacity="0.6" stroke-width="4.5" stroke-linecap="round" stroke-linejoin="round"/>
<path d="M28.3599 22.7717C28.2474 24.1493 29.0298 28.6997 29.8651 31.208C30.4284 32.8996 31.1551 34.6483 31.7749 34.6358" fill="#0066FF" fill-opacity="0.6"/>
<path d="M28.3599 22.7717C28.2474 24.1493 29.0298 28.6997 29.8651 31.208C30.4284 32.8996 31.1551 34.6483 31.7749 34.6358" stroke="#0455CE" stroke-opacity="0.6" stroke-width="4.5" stroke-linecap="round" stroke-linejoin="round"/>
<path d="M32.6606 1.29652C32.2729 0.124416 30.6938 0.970098 30.2106 1.44364C29.3057 2.33044 28.4965 3.44553 27.7762 4.4718C26.3556 6.49621 25.3263 9.18625 27.6236 11.0014C29.5582 12.53 32.1134 10.8791 33.2219 9.23265C34.861 6.79757 33.4686 3.74417 32.6606 1.29652Z" fill="#0066FF" fill-opacity="0.6"/>
<path d="M3.42533 37.375C9.75508 37.375 30.4716 37.375 36.8013 37.375H3.42533Z" fill="#0066FF" fill-opacity="0.6"/>
<path d="M3.42533 37.375C9.75508 37.375 30.4716 37.375 36.8013 37.375" stroke="#0066FF" stroke-opacity="0.6" stroke-width="3.5" stroke-linecap="round"/>
</svg>
