<svg xmlns="http://www.w3.org/2000/svg" width="1334" height="395" viewBox="0 0 1334 395" fill="none">
<rect y="1" width="1334" height="394" rx="15" fill="#1E77FB"/>
<path d="M36.4237 53.1898L35.9471 44.8424C35.718 40.8301 39.5976 37.8442 43.4176 39.0929V39.0929C47.2376 40.3416 51.1172 37.3558 50.8881 33.3434V33.3434C50.659 29.331 54.5386 26.3451 58.3586 27.5939V27.5939C62.1786 28.8426 66.0582 25.8567 65.8291 21.8443V21.8443C65.6 17.8319 69.4796 14.8461 73.2996 16.0948V16.0948C77.1196 17.3435 80.9992 14.3577 80.7701 10.3453L80.2935 1.99794" stroke="#FDB1BF" stroke-width="3.5" stroke-linecap="round"/>
<path d="M1241 34.3508L1249.1 32.2965C1253 31.309 1256.67 34.5504 1256.17 38.5381V38.5381C1255.67 42.5258 1259.34 45.7672 1263.23 44.7797V44.7797C1267.13 43.7922 1270.8 47.0336 1270.3 51.0213V51.0213C1269.8 55.009 1273.47 58.2504 1277.36 57.2629V57.2629C1281.26 56.2755 1284.93 59.5169 1284.43 63.5046V63.5046C1283.93 67.4923 1287.6 70.7337 1291.49 69.7462L1299.6 67.6918" stroke="#FDB1BF" stroke-width="3.5" stroke-linecap="round"/>
<g filter="url(#filter0_d_40_1538)">
<path d="M140.527 334.107C144.29 333.967 146.852 337.879 145.219 341.272L134.25 364.066C132.562 367.572 127.693 367.892 125.561 364.637L111.252 342.786C109.12 339.531 111.36 335.195 115.249 335.05L140.527 334.107Z" fill="url(#paint0_linear_40_1538)"/>
</g>


<path d="M996.298 66.2582C993.678 67.1298 992.228 69.9842 993.48 72.4454C995.701 76.8112 998.865 80.6548 1002.76 83.6855C1007.99 87.7436 1014.29 90.1622 1020.89 90.6352C1027.49 91.1083 1034.08 89.6146 1039.82 86.3431C1045.57 83.0716 1050.22 78.1692 1053.18 72.2559C1056.14 66.3425 1057.28 59.6838 1056.46 53.1217C1055.64 46.5597 1052.89 40.389 1048.56 35.39C1044.23 30.3911 1038.51 26.7884 1032.14 25.0375C1027.37 23.7299 1022.4 23.499 1017.57 24.3353C1014.85 24.8067 1013.44 27.6776 1014.31 30.2979L1021.7 52.5382C1022.58 55.1584 1021.16 57.9891 1018.54 58.8607L996.298 66.2582Z" fill="#FA7590"/>
<path d="M502 392.001C490.667 372.001 486.8 332.001 562 332.001C637.2 332.001 640 298.668 632 282.001" stroke="#977BEA" stroke-width="3"/>

<defs>
<filter id="filter0_d_40_1538" x="110.428" y="334.104" width="57.2925" height="56.7939" filterUnits="userSpaceOnUse" color-interpolation-filters="sRGB">
<feFlood flood-opacity="0" result="BackgroundImageFix"/>
<feColorMatrix in="SourceAlpha" type="matrix" values="0 0 0 0 0 0 0 0 0 0 0 0 0 0 0 0 0 0 127 0" result="hardAlpha"/>
<feOffset dx="18" dy="20"/>
<feGaussianBlur stdDeviation="2"/>
<feComposite in2="hardAlpha" operator="out"/>
<feColorMatrix type="matrix" values="0 0 0 0 0.725 0 0 0 0 0.725 0 0 0 0 0.725 0 0 0 0.2 0"/>
<feBlend mode="normal" in2="BackgroundImageFix" result="effect1_dropShadow_40_1538"/>
<feBlend mode="normal" in="SourceGraphic" in2="effect1_dropShadow_40_1538" result="shape"/>
</filter>
<linearGradient id="paint0_linear_40_1538" x1="158.728" y1="310.519" x2="77.399" y2="385.72" gradientUnits="userSpaceOnUse">
<stop stop-color="#6551E0"/>
<stop offset="1" stop-color="#F6CCFA"/>
</linearGradient>
</defs>
</svg>
