<svg width="153" height="164" viewBox="0 0 153 164" fill="none" xmlns="http://www.w3.org/2000/svg">
<path d="M108.698 109.95C111.289 113.454 107.038 122.489 96.034 126.157C85.0303 129.826 74.9897 129.44 73.6081 125.296C72.2265 121.152 80.0269 114.818 91.0307 111.15C102.035 107.481 104.99 104.932 108.698 109.95Z" fill="#181818"/>
<path d="M73.8232 148C73.5118 144.549 73.8704 140.771 76.956 132.285L112.973 118.193C112.973 118.193 122 116 125 124C125.937 126.5 123.546 128.52 125 131C125 131 117.536 136.982 104.5 142.056C96.1162 145.319 85.6343 148 73.8232 148Z" fill="#F7F7F7"/>
<path d="M74.1504 117.758C74.5598 118.127 78.2492 123.029 77.4256 127.68C77.4256 127.68 89.7131 134.005 107.655 117.601L102.986 108.145L74.1504 117.758Z" fill="#F7F7F7"/>
<path d="M74.6212 121.174C74.6212 121.174 70.7353 125.433 76.8751 132.275C76.8751 132.275 81.9781 136.007 95.1378 130.632C108.298 125.257 112.469 120.409 113.179 118.197C113.888 115.985 108.469 108.409 106.87 107.954C106.87 107.954 102.423 114.869 91.4333 119.52C81.3191 123.801 75.3725 124.874 74.6212 121.174Z" fill="#353535"/>
<path d="M96.3072 132.32L91.7271 133.847L87.5056 121.184L91.9294 119.188L96.3072 132.32Z" fill="#F8951F"/>
<path d="M102.898 133.77C104.366 138.173 102.07 142.905 97.7697 144.339C93.4695 145.773 88.7932 143.365 87.3252 138.962C85.8572 134.559 88.1534 129.827 92.4537 128.393C96.7539 126.96 101.43 129.367 102.898 133.77Z" fill="#F8951F"/>
<path d="M118.967 124.159C118.967 124.159 114.484 128.434 117.002 134.759C117.002 134.759 123.148 131.891 124.76 129.947C124.76 129.947 123.026 127.019 118.967 124.159Z" fill="#353535"/>
<path d="M40.2578 45.9704C40.2578 45.9704 33.965 42.7309 30.2157 41.1068C30.2157 41.1068 25.5754 66.878 13.7187 78.2211C13.7187 78.2211 26.7621 81.2632 33.2403 76.6399C39.7186 72.0166 38.523 56.4026 34.7477 51.0921L40.7765 51.135L40.2578 45.9704Z" fill="#353535"/>
<path d="M81.9444 32.8069C81.9444 32.8069 84.4676 26.1788 86.1749 22.4571C86.1749 22.4571 106.796 38.5181 123.173 39.0085C123.173 39.0085 115.496 50.015 107.596 50.9184C99.697 51.8219 90.185 39.405 89.4556 32.9236L84.9991 36.9969L81.9444 32.8069Z" fill="#353535"/>
<path d="M41.824 60.7826C41.824 60.7826 43.1965 67.3049 41.5416 71.9624C39.8865 76.6201 32.7391 102.31 58.9735 115.831C85.2079 129.352 119.775 103.361 120.948 81.6205C122.12 59.8795 97.1954 47.6601 97.1954 47.6601C97.1954 47.6601 92.9533 44.558 86.9778 35.054C86.9778 35.054 82.9475 27.7755 72.5707 26.7187C72.5707 26.7187 64.4387 19.1653 61.3141 20.6177C61.3141 20.6177 64.2358 24.5704 64.3676 26.1688C64.3676 26.1688 58.4097 19.1225 55.2763 19.346C55.2763 19.346 58.814 25.1463 56.4285 28.8156C56.4285 28.8156 54.8356 25.2408 55.0646 23.5221C55.0646 23.5221 50.8575 25.3354 48.6386 35.5185C48.6386 35.5185 40.866 44.6789 41.824 60.7826Z" fill="#F7F7F7"/>
<path d="M57.531 33.3249C59.5023 34.8216 66.5601 48.3802 50.1005 56.7416L41.8005 59.5087C41.8005 59.5087 34.0917 43.6027 45.3758 36.5561C45.3758 36.5561 53.7731 30.4721 57.531 33.3249Z" fill="#353535"/>
<path d="M57.8556 45.1238C58.604 47.3687 57.4334 49.7809 55.2411 50.5118C53.0487 51.2427 50.6649 50.0155 49.9165 47.7706C49.1681 45.5257 50.3386 43.1136 52.531 42.3827C54.7233 41.6518 57.1072 42.8789 57.8556 45.1238Z" fill="#111111"/>
<path d="M52.3809 46.7438C52.7552 47.8664 52.4929 48.9647 51.7955 49.1972C51.0978 49.4298 50.2291 48.7085 49.8549 47.586C49.4807 46.4636 49.7428 45.3652 50.4404 45.1326C51.1378 44.9001 52.0068 45.6215 52.3809 46.7438Z" fill="#686868"/>
<path d="M77.3427 38.6272C78.0912 40.8722 76.9205 43.2843 74.7283 44.0152C72.536 44.7461 70.1521 43.5189 69.4036 41.274C68.6552 39.0291 69.8259 36.6169 72.0181 35.8861C74.2104 35.1552 76.5943 36.3823 77.3427 38.6272Z" fill="#111111"/>
<path d="M71.8681 40.2472C72.2423 41.3698 71.98 42.468 71.2826 42.7005C70.5849 42.9331 69.7161 42.212 69.3418 41.0894C68.9677 39.967 69.2299 38.8686 69.9275 38.636C70.625 38.4035 71.4939 39.1248 71.8681 40.2472Z" fill="#686868"/>
<path d="M84.6084 100.112C80.2238 101.574 74.6196 100.219 73.1229 95.7294L73.5896 93.5208L75.2534 90.0922L78.704 83.6043L89.4678 88.2273L90.7969 88.6053C92.2937 93.095 88.9931 98.65 84.6084 100.112Z" fill="#CECECE"/>
<path d="M74.2426 92.6173L77.2446 100.836C78.4295 103.977 82.4953 105.345 86.3258 103.892C90.156 102.438 92.3006 98.7141 91.1159 95.5734L88.1137 87.3546L78.8367 82.5393L74.2426 92.6173Z" fill="#ED393A"/>
<path d="M57.1696 98.1967C57.1696 98.1967 76.416 97.8775 77.9856 84.7242C77.9856 84.7242 71.8909 63.8914 69.9024 63.0301C67.9139 62.1687 54.4647 68.3945 50.8144 67.6517C44.9932 66.4671 43.4929 90.3441 57.1696 98.1967Z" fill="#F7F7F7"/>
<path d="M103.914 81.5239C103.914 81.5239 88.3262 92.8178 79.1777 83.2378C79.1777 83.2378 70.1544 62.5104 71.2282 60.6281C72.302 58.7458 90.5854 56.1345 91.1986 54.188C93.0013 48.4675 110.142 67.0352 103.914 81.5239Z" fill="#F7F7F7"/>
<path d="M80.1507 81.9441C76.7862 78.6879 73.618 67.7833 73.618 67.7833L72.8378 67.2386L72.6937 66.8646L72.6333 67.0962L72.4762 66.9866L72.5828 67.2899L72.3416 68.2139C72.3416 68.2139 76.9967 78.5685 76.5476 83.2348C76.0982 87.9009 71.2386 99.7855 55.414 95.6177C55.414 95.6177 61.8388 100.456 70.6141 96.7091C77.6611 93.7001 78.6117 86.3733 78.7132 83.6023C80.559 85.6246 86.0477 90.6391 93.3924 88.3296C102.493 85.4677 104.245 77.6073 104.245 77.6073C94.9102 91.0759 83.5152 85.2002 80.1507 81.9441Z" fill="#CECECE"/>
<path d="M52.1339 54.4216C52.1339 54.4216 46.8529 57.8247 51.8341 63.1439C56.8151 68.4631 64.0845 73.4296 72.0238 70.7828C79.9629 68.136 84.8225 56.2518 83.4412 48.5007C82.0602 40.7496 72.0877 45.7167 72.0877 45.7167C72.0877 45.7167 58.8584 50.5373 52.1339 54.4216Z" fill="#111111"/>
<path d="M58.1177 65.1543C58.1177 65.1543 53.128 58.6066 71.1541 50.1335C71.1541 50.1335 76.5497 45.8711 70.5381 48.2858C64.5265 50.7007 55.016 55.1598 54.2105 58.2455C53.5061 60.9438 55.2222 64.888 58.1177 65.1543Z" fill="#686868"/>
</svg>
